<?xml version="1.0" encoding="utf-8"?>
<!-- Generator: Adobe Illustrator 16.0.0, SVG Export Plug-In . SVG Version: 6.00 Build 0)  -->
<!DOCTYPE svg PUBLIC "-//W3C//DTD SVG 1.1//EN" "http://www.w3.org/Graphics/SVG/1.1/DTD/svg11.dtd">
<svg version="1.1" id="Layer_1" xmlns="http://www.w3.org/2000/svg" xmlns:xlink="http://www.w3.org/1999/xlink" x="0px" y="0px"
	 width="600px" height="600px" viewBox="0 0 600 600" enable-background="new 0 0 600 600" xml:space="preserve">
<title>Square Avatar 02</title>
<desc>Created with Sketch.</desc>
<path fill="#EE5A2F" d="M300.001,60C167.427,60,60,167.473,60,300.009C60,432.546,167.427,540,300.001,540
	C432.556,540,540,432.546,540,300.009C540,167.473,432.551,60,300.001,60z M235.276,435.326c-12.994,0-23.527-10.542-23.527-23.523
	c0-13.008,10.533-23.551,23.527-23.551c13.012,0,23.54,10.543,23.54,23.551C258.816,424.784,248.288,435.326,235.276,435.326z
	 M305.892,435.326c-13.009,0-23.541-10.542-23.541-23.523c0-13.008,10.532-23.551,23.541-23.551
	c13.002,0,23.515,10.543,23.529,23.551C329.421,424.784,318.894,435.326,305.892,435.326z M419.619,196.782
	c-9.534,9.288-22.557,14.98-36.907,14.98H370.93c-3.246,0-5.855,2.614-5.855,5.856v17.656h47.06c0,26.014-21.07,47.088-47.06,47.088
	v23.523c0,30.748-19.658,56.896-47.09,66.587c-3.799,1.356-7.716,2.381-11.776,3.044c-3.808,0.649-7.744,0.981-11.754,0.981h-59.178
	c-4.01,0-7.929-0.332-11.769-0.981c-4.057-0.663-7.976-1.688-11.759-3.044c-27.417-9.69-47.074-35.839-47.074-66.587
	c0-34.959,25.448-64.032,58.833-69.631c3.84-0.634,7.759-0.98,11.769-0.98h64.886v47.088h-64.886
	c-12.98,0-23.527,10.547-23.527,23.523c0,12.994,10.547,23.537,23.527,23.537h59.178c12.98,0,23.53-10.543,23.53-23.537v-88.261
	c0-14.884,6.173-28.34,16.039-37.977c9.532-9.274,22.591-14.967,36.906-14.974h64.396
	C433.969,177.229,428.186,188.427,419.619,196.782z"/>
</svg>
